<svg xmlns="http://www.w3.org/2000/svg" viewBox="148.768 2165.786 80.379 79.932">
  <defs>
    <style>
      .cls-1 {
        fill: #747474;
      }
    </style>
  </defs>
  <path id="file" class="cls-1" d="M342.079,462.985v29.472l-13.4-13.4L310.82,496.922,292.958,479.06,275.1,496.922l-13.4-13.4V463.431a9.157,9.157,0,0,1,8.931-8.931h62.517a8.816,8.816,0,0,1,6.252,2.679A7.86,7.86,0,0,1,342.079,462.985Zm-13.4,29.026,13.4,13.4V525.5a9.157,9.157,0,0,1-8.931,8.931H270.631A9.157,9.157,0,0,1,261.7,525.5V496.029l13.4,13.4,17.862-17.862,17.862,17.862Z" transform="translate(-112.932 1711.286)"/>
</svg>
