<svg xmlns="http://www.w3.org/2000/svg" viewBox="5658.3 -26.154 80.365 57.154">
  <defs>
    <style>
      .cls-1 {
        fill: #747474;
      }
    </style>
  </defs>
  <path id="movi" class="cls-1" d="M731.592,3h16.073V53.009a6.7,6.7,0,0,1-2.411,5,8.447,8.447,0,0,1-5.625,2.143H675.336a8.447,8.447,0,0,1-5.625-2.143,6.694,6.694,0,0,1-2.411-5V10.144a6.7,6.7,0,0,1,2.411-5A8.447,8.447,0,0,1,675.336,3h4.018l8.036,14.288h12.055L691.409,3h8.036l8.037,14.288h12.055L711.5,3h8.037l8.036,14.288h12.055Z" transform="translate(4991 -29.154)"/>
</svg>
