<svg xmlns="http://www.w3.org/2000/svg" viewBox="1509.59 2260.786 56.41 79.614">
  <defs>
    <style>
      .cls-1 {
        fill: #747474;
      }
    </style>
  </defs>
  <path id="point" class="cls-1" d="M161.8,113.5a26.263,26.263,0,0,1,19.6-8,27.324,27.324,0,0,1,27.6,27.6,34.093,34.093,0,0,1-2.8,13.2,92.558,92.558,0,0,1-7.2,14c-2.8,4.4-5.6,8.4-8,12.4-2.8,4-4.8,6.8-6.8,9.2l-3.2,3.2c-.8-.8-1.6-2-3.2-3.6-1.2-1.6-3.6-4.4-6.8-8.8s-6-8.4-8.4-12.4a107.78,107.78,0,0,1-6.8-13.6c-2-5.2-3.2-9.6-3.2-13.6C153.8,125.5,156.2,118.7,161.8,113.5Zm12.8,26.8a10.659,10.659,0,1,0-2.8-7.2A9.641,9.641,0,0,0,174.6,140.306Z" transform="translate(1356.99 2155.286)"/>
</svg>
